<svg width="85" height="21" viewBox="0 0 85 21" fill="none" xmlns="http://www.w3.org/2000/svg">
<path d="M4.48438 2.78516H7.23828L12.9688 16.7305L15.9336 2.78516H18.1484L14.4922 20H11.8789L6.00781 6.06641L3.05469 20H0.828125L4.48438 2.78516ZM21.3308 2.78516H33.8816L33.4245 4.89453H23.1472L22.0456 10.1211H31.5495L31.1277 12.1133H21.6238L20.3816 17.9492H30.8347L30.4011 20H17.6745L21.3308 2.78516ZM37.5327 2.78516L37.8022 16.7891L44.6694 2.78516H47.2006L48.1147 16.7891L54.3373 2.78516H56.892L48.7123 20H46.2631L45.3139 5.72656L38.2944 20H35.8452L35.0014 2.78516H37.5327ZM71.6652 2.78516H84.2159V4.89453H73.9386V10.1211H83.4425V12.1133H73.9386V17.9492H84.3917V20H71.6652V2.78516Z" fill="black"/>
<path d="M61.5916 7.064C62.8636 7.064 63.3436 8.264 63.3436 9.944C63.3436 14.12 60.2956 20.312 56.5516 20.312C54.9916 20.312 53.7436 19.736 53.0476 19.328L58.4236 2.768C58.7836 1.664 58.5436 1.28 56.7676 1.28L56.9116 0.8C59.3836 0.8 59.8156 0.751999 60.2956 0.127998L60.5836 0.223999L56.5516 12.656C57.7516 10.16 59.6716 7.064 61.5916 7.064ZM56.6476 19.448C59.4796 19.448 61.9276 13.856 61.9276 10.136C61.9276 8.912 61.7116 8.216 61.0156 8.216C59.3836 8.216 56.8876 12.416 55.8076 15.224L54.5836 18.8C54.9676 19.112 55.5916 19.448 56.6476 19.448ZM69.5392 4.184C68.8192 4.184 68.3392 3.728 68.3392 3.032C68.3392 2.312 68.8192 1.88 69.5392 1.88C70.2352 1.88 70.6912 2.312 70.6912 3.032C70.6912 3.728 70.2352 4.184 69.5392 4.184ZM64.6672 17.408L67.1872 10.16C67.4032 9.512 67.6672 8.744 67.6672 8.456C67.6672 8.096 67.5232 8 67.3072 8C66.4912 8 65.2672 9.56 64.4512 11H63.9472C64.9312 9.104 66.5632 7.112 68.0752 7.112C68.6992 7.112 69.0112 7.616 69.0112 8.192C69.0112 8.696 68.8192 9.368 68.5072 10.184L65.9632 17.432C65.8432 17.792 65.6512 18.32 65.6512 18.632C65.6512 18.992 65.7472 19.232 66.1312 19.232C67.1152 19.232 68.2192 17.576 69.0352 15.752H69.5392C68.6992 17.816 67.1872 20.144 65.5552 20.144C64.6192 20.144 64.2832 19.616 64.2832 18.896C64.2832 18.464 64.4752 17.936 64.6672 17.408Z" fill="black"/>
</svg>
